<?xml version="1.0" standalone="no"?>
<svg xmlns="http://www.w3.org/2000/svg" width="173.8109131905299" height="70.49091319052988" viewBox="0 0 173.8109131905299 70.49091319052988"><g fill="#000000" color="#000000" transform="translate(0 0) scale(0.7049092)"><g transform="translate(-0.0, -16.75)"><svg width="100.0" height="100.0" x="0.0" y="16.75" viewBox="0 16.75 100 100"><path d="M88.702,32.132c-0.226-0.068-0.452-0.135-0.683-0.188l-2.272-0.521l0.52,2.273c0.053,0.228,0.087,0.454,0.118,0.682  c0.052,0.37,0.077,0.69,0.077,0.982v61.929c0,4.093-3.33,7.423-7.423,7.423h-61.93c-0.289,0-0.61-0.025-0.982-0.077  c-0.227-0.031-0.453-0.066-0.681-0.118l-2.272-0.521l0.521,2.272c0.053,0.232,0.119,0.459,0.188,0.685  c1.322,4.394,5.296,7.347,9.892,7.347h61.93c5.705,0,10.347-4.642,10.347-10.347v-61.93C96.05,37.429,93.097,33.454,88.702,32.132z   M93.126,103.953c0,4.092-3.331,7.423-7.423,7.423h-61.93c-2.719,0-5.14-1.42-6.446-3.74h61.712c5.705,0,10.347-4.642,10.347-10.347  V35.577c2.32,1.308,3.74,3.729,3.74,6.447V103.953z"></path><polygon points="50.927,65.715 51.062,65.715 51.632,65.715 52.205,65.715 50.993,60.061 50.965,59.919 50.927,60.113   50.927,60.242 50.927,60.372 50.353,63.041 49.783,65.715 50.353,65.715 "></polygon><path d="M53.278,68.432h-1.109h-1.107h-0.135H49.82h-1.111l-4.176,11.591c0,0,0.099-0.055,0.275-0.139  c0.003,0,0.008-0.004,0.014-0.007c0.181-0.087,0.447-0.209,0.781-0.341c0.007-0.004,0.014-0.007,0.022-0.01  c0.127-0.051,0.27-0.102,0.416-0.156c0.015-0.007,0.03-0.013,0.045-0.016c0.132-0.049,0.267-0.095,0.409-0.14  c0.083-0.027,0.168-0.054,0.255-0.078c0.105-0.033,0.202-0.063,0.311-0.095c0.199-0.058,0.405-0.111,0.623-0.166  c0.724-0.172,1.542-0.308,2.416-0.356c0.27-0.012,0.544-0.023,0.825-0.018c0.022,0,0.046-0.003,0.066,0c0.023-0.003,0.047,0,0.068,0  c0.278-0.006,0.551,0.006,0.826,0.018c0.581,0.034,1.144,0.104,1.665,0.196c0.004,0.004,0.008,0.004,0.016,0.004  c0.255,0.048,0.495,0.103,0.734,0.156c0.214,0.055,0.425,0.108,0.623,0.166c0.109,0.031,0.206,0.062,0.307,0.095  c0.088,0.024,0.174,0.051,0.256,0.078c0.143,0.045,0.281,0.091,0.409,0.14c0.016,0.003,0.029,0.009,0.046,0.016  c0.15,0.055,0.292,0.105,0.42,0.156c0.008,0.003,0.016,0.006,0.021,0.01c0.335,0.132,0.598,0.254,0.781,0.341  c0.004,0.003,0.007,0.007,0.015,0.007c0.176,0.084,0.271,0.139,0.271,0.139l-2.086-5.796L53.278,68.432z"></path><path d="M77.612,19.3H6.29c-2.318,0-4.197,1.879-4.197,4.198v71.322c0,2.318,1.879,4.197,4.197,4.197h1.567h1.158h6.3h1.11h61.188  c2.317,0,4.197-1.879,4.197-4.197V33.471v-1.11v-6.34v-1.152v-1.372C81.81,21.179,79.93,19.3,77.612,19.3z M18.756,46.905  c-1.249,0-2.421-0.323-3.442-0.885c-2.204-1.216-3.697-3.559-3.697-6.253c0-3.943,3.197-7.14,7.139-7.14  c0.771,0,1.511,0.126,2.206,0.351c2.862,0.931,4.933,3.616,4.933,6.789C25.896,43.708,22.699,46.905,18.756,46.905z M71.612,94.654  l-5.016-0.109c0,0-0.678-3.129-2.893-6.262c-2.212-3.128-5.965-6.257-12.109-6.257c-0.094,0-0.184,0-0.271,0.006  c-0.091,0.003-0.177,0.008-0.263,0.01c-0.021,0.003-0.045,0.003-0.068,0.003c-0.021,0-0.044,0-0.066-0.003  c-0.087-0.002-0.177-0.007-0.263-0.01c-0.09-0.006-0.18-0.006-0.27-0.006c-6.146,0-9.897,3.129-12.111,6.257  c-2.216,3.133-2.896,6.262-2.896,6.262l-5.011,0.109l-5.017,0.105c0,0,5.35-2.001,10.917-9.73  c5.567-7.73,11.354-21.189,12.229-44.11c-0.374-0.215-0.682-0.48-0.896-0.786c-0.214-0.303-0.33-0.641-0.33-1V36.97v-2.161  c0-0.62,0.353-1.179,0.931-1.596c0.574-0.42,1.376-0.695,2.27-0.738l0.008-4.628l0.003-4.628h0.237h0.236h0.06h0.236h0.236  l0.004,4.628l0.004,4.628c0.897,0.043,1.695,0.318,2.272,0.738c0.578,0.417,0.931,0.977,0.931,1.596v2.161v2.162  c0,0.36-0.119,0.698-0.333,1c-0.211,0.306-0.519,0.571-0.894,0.786c0.874,22.921,6.663,36.38,12.231,44.11  c5.565,7.729,10.916,9.73,10.916,9.73L71.612,94.654z"></path></svg></g></g><path fill="#000000" fill-rule="nonzero" d="M4.68 27.84L0.20 27.84Q0 27.84 0 27.64L0 27.64L0.08 0.16Q0.08 0 0.24 0L0.24 0L13.04 0Q13.24 0 13.24 0.16L13.24 0.16L13.24 4.68Q13.24 4.84 13.08 4.84L13.08 4.84L4.88 4.84L4.88 11.04L13.08 11.04Q13.24 11.04 13.24 11.24L13.24 11.24L13.28 15.76Q13.28 15.92 13.08 15.92L13.08 15.92L4.88 15.92L4.88 27.64Q4.88 27.84 4.68 27.84L4.68 27.84ZM21.92 27.84L17.40 27.84Q17.24 27.84 17.24 27.64L17.24 27.64L17.32 0.16Q17.32 0 17.48 0L17.48 0L25.56 0Q27.72 0 29.54 1.06Q31.36 2.12 32.44 3.90Q33.52 5.68 33.52 7.92L33.52 7.92Q33.52 9.40 33.08 10.58Q32.64 11.76 32.04 12.58Q31.44 13.40 30.96 13.80L30.96 13.80Q33.12 16.20 33.12 19.44L33.12 19.44L33.16 27.64Q33.16 27.84 32.96 27.84L32.96 27.84L28.44 27.84Q28.28 27.84 28.28 27.72L28.28 27.72L28.28 19.44Q28.28 18 27.26 16.94Q26.24 15.88 24.76 15.88L24.76 15.88L22.12 15.88L22.08 27.64Q22.08 27.84 21.92 27.84L21.92 27.84ZM22.12 4.80L22.12 11.08L25.56 11.08Q26.80 11.08 27.76 10.16Q28.72 9.24 28.72 7.92L28.72 7.92Q28.72 6.64 27.78 5.72Q26.84 4.80 25.56 4.80L25.56 4.80L22.12 4.80ZM35.16 27.64L35.16 27.64L40.12 0.16Q40.16 0 40.32 0L40.32 0L46.12 0Q46.28 0 46.32 0.16L46.32 0.16L51.08 27.64Q51.12 27.84 50.92 27.84L50.92 27.84L46.48 27.84Q46.32 27.84 46.28 27.64L46.28 27.64L45.84 24.72L40.40 24.72L39.96 27.64Q39.92 27.84 39.76 27.84L39.76 27.84L35.32 27.84Q35.16 27.84 35.16 27.64ZM43 9.20L41.20 20.44L45.04 20.44L43.40 9.20L43.16 7.72L43 9.20ZM58.28 27.84L53.76 27.84Q53.60 27.84 53.60 27.64L53.60 27.64L53.68 0.16Q53.68 0 53.84 0L53.84 0L58.72 0Q58.88 0 59 0.16L59 0.16L62.64 5.44L66.28 0.16Q66.40 0 66.56 0L66.56 0L71.48 0Q71.64 0 71.64 0.16L71.64 0.16L71.72 27.64Q71.72 27.84 71.56 27.84L71.56 27.84L67.04 27.84Q66.88 27.84 66.88 27.64L66.88 27.64L66.84 7.24L62.64 13.32L58.48 7.24L58.44 27.64Q58.44 27.84 58.28 27.84L58.28 27.84ZM88.16 27.84L75.24 27.84Q75.08 27.84 75.08 27.64L75.08 27.64L75.12 0.16Q75.12 0 75.28 0L75.28 0L88.12 0Q88.28 0 88.28 0.20L88.28 0.20L88.28 4.68Q88.28 4.84 88.12 4.84L88.12 4.84L79.92 4.84L79.92 11.08L88.12 11.08Q88.28 11.08 88.28 11.24L88.28 11.24L88.32 15.76Q88.32 15.92 88.16 15.92L88.16 15.92L79.92 15.92L79.92 22.92L88.16 22.92Q88.32 22.92 88.32 23.12L88.32 23.12L88.32 27.68Q88.32 27.84 88.16 27.84L88.16 27.84Z" transform="translate(85.491 0) scale(1)"></path><path fill="#000000" fill-rule="nonzero" d="M9.80 27.84L4.96 27.84Q4.80 27.84 4.76 27.64L4.76 27.64L0.04 0.16Q0 0 0.16 0L0.16 0L4.64 0Q4.80 0 4.84 0.16L4.84 0.16L7.40 18.24L10.04 0.16Q10.08 0 10.28 0L10.28 0L13.88 0Q14.04 0 14.08 0.16L14.08 0.16L16.68 18.24L19.28 0.16Q19.32 0 19.48 0L19.48 0L23.92 0Q24.12 0 24.08 0.16L24.08 0.16L19.32 27.64Q19.28 27.72 19.20 27.78Q19.12 27.84 19.12 27.84L19.12 27.84L14.28 27.84Q14.16 27.84 14.08 27.64L14.08 27.64L12.04 13.28L10 27.64Q9.96 27.84 9.80 27.84L9.80 27.84ZM23.40 27.64L23.40 27.64L28.36 0.16Q28.40 0 28.56 0L28.56 0L34.36 0Q34.52 0 34.56 0.16L34.56 0.16L39.32 27.64Q39.36 27.84 39.16 27.84L39.16 27.84L34.72 27.84Q34.56 27.84 34.52 27.64L34.52 27.64L34.08 24.72L28.64 24.72L28.20 27.64Q28.16 27.84 28 27.84L28 27.84L23.56 27.84Q23.40 27.84 23.40 27.64ZM31.24 9.20L29.44 20.44L33.28 20.44L31.64 9.20L31.40 7.72L31.24 9.20ZM54.92 27.84L42 27.84Q41.84 27.84 41.84 27.64L41.84 27.64L41.88 0.20Q41.88 0 42.08 0L42.08 0L46.52 0Q46.72 0 46.72 0.20L46.72 0.20L46.68 22.92L54.92 22.92Q55.12 22.92 55.12 23.12L55.12 23.12L55.12 27.64Q55.12 27.84 54.92 27.84L54.92 27.84ZM70.80 27.84L57.88 27.84Q57.72 27.84 57.72 27.64L57.72 27.64L57.76 0.20Q57.76 0 57.96 0L57.96 0L62.40 0Q62.60 0 62.60 0.20L62.60 0.20L62.56 22.92L70.80 22.92Q71 22.92 71 23.12L71 23.12L71 27.64Q71 27.84 70.80 27.84L70.80 27.84Z" transform="translate(85.491 35.84) scale(1.245)"></path></svg>